<svg width="1200" height="900" viewBox="0 0 1200 900" fill="none" xmlns="http://www.w3.org/2000/svg" role="img" aria-label="Abstract finance operations illustration: rising chart, ledger grid and data points">
  <defs>
    <linearGradient id="hfArea" x1="0" y1="0" x2="0" y2="1">
      <stop offset="0" stop-color="#C4A35A" stop-opacity="0.34" />
      <stop offset="1" stop-color="#C4A35A" stop-opacity="0" />
    </linearGradient>
    <linearGradient id="hfBar" x1="0" y1="0" x2="0" y2="1">
      <stop offset="0" stop-color="#132766" stop-opacity="0.28" />
      <stop offset="1" stop-color="#132766" stop-opacity="0.05" />
    </linearGradient>
    <linearGradient id="hfTrend" x1="0" y1="0" x2="1" y2="0">
      <stop offset="0" stop-color="#A6863D" stop-opacity="0.55" />
      <stop offset="0.55" stop-color="#C4A35A" stop-opacity="1" />
      <stop offset="1" stop-color="#D8BD7E" stop-opacity="1" />
    </linearGradient>
  </defs>

  <g stroke="#0B1B4D" stroke-opacity="0.10" stroke-width="1">
    <line x1="0" y1="170" x2="1200" y2="170" />
    <line x1="0" y1="310" x2="1200" y2="310" />
    <line x1="0" y1="450" x2="1200" y2="450" />
    <line x1="0" y1="590" x2="1200" y2="590" />
    <line x1="0" y1="730" x2="1200" y2="730" />
  </g>

  <g>
    <rect x="150" y="620" width="78" height="150" rx="7" fill="url(#hfBar)" />
    <rect x="280" y="550" width="78" height="220" rx="7" fill="url(#hfBar)" />
    <rect x="410" y="470" width="78" height="300" rx="7" fill="url(#hfBar)" />
    <rect x="540" y="520" width="78" height="250" rx="7" fill="url(#hfBar)" />
    <rect x="670" y="400" width="78" height="370" rx="7" fill="url(#hfBar)" />
    <rect x="800" y="330" width="78" height="440" rx="7" fill="url(#hfBar)" />
    <rect x="930" y="240" width="78" height="530" rx="7" fill="url(#hfBar)" />
    <rect x="1060" y="180" width="78" height="590" rx="7" fill="url(#hfBar)" />
  </g>

  <path d="M70 660 L250 610 L430 530 L610 560 L790 450 L970 360 L1150 240 L1150 770 L70 770 Z" fill="url(#hfArea)" />
  <path d="M70 660 L250 610 L430 530 L610 560 L790 450 L970 360 L1150 240"
    stroke="url(#hfTrend)" stroke-width="4" stroke-linecap="round" stroke-linejoin="round" fill="none" />

  <g fill="#FFFFFF" stroke="#C4A35A" stroke-width="3">
    <circle cx="250" cy="610" r="6" />
    <circle cx="430" cy="530" r="6" />
    <circle cx="610" cy="560" r="6" />
    <circle cx="790" cy="450" r="6" />
    <circle cx="970" cy="360" r="6" />
    <circle cx="1150" cy="240" r="7" />
  </g>

  <g transform="translate(1010,175)">
    <circle r="96" fill="none" stroke="#0B1B4D" stroke-opacity="0.12" stroke-width="16" />
    <circle r="96" fill="none" stroke="#C4A35A" stroke-opacity="0.65" stroke-width="16" stroke-linecap="round"
      stroke-dasharray="452 603" transform="rotate(-90)" />
  </g>

  <g transform="translate(150,120)" stroke="#0B1B4D" stroke-opacity="0.16" stroke-width="2.5" fill="none">
    <rect x="0" y="0" width="200" height="250" rx="12" />
    <line x1="30" y1="50" x2="170" y2="50" />
    <line x1="30" y1="92" x2="170" y2="92" />
    <line x1="30" y1="134" x2="130" y2="134" />
    <line x1="30" y1="176" x2="170" y2="176" />
    <line x1="30" y1="218" x2="104" y2="218" />
  </g>
</svg>
